HIERARCHY
ROOT pelvis
{
  OFFSET 0 100 0
  CHANNELS 6 Xposition Yposition Zposition Zrotation Xrotation Yrotation
  JOINT pelvis_right_femur
  {
    OFFSET -10.78128 -3.44521 -0.5502486
    CHANNELS 3 Zrotation Xrotation Yrotation
    JOINT right_femur_tibia
    {
      OFFSET -0.8047443 -44.0398 -0.1307829
      CHANNELS 3 Zrotation Xrotation Yrotation
      JOINT right_tibia_foot
      {
        OFFSET 3.006224 -47.83518 -5
        CHANNELS 3 Zrotation Xrotation Yrotation
        End Site
        {
          OFFSET 0 -5 15
        }
      }
    }
  }
  JOINT pelvis_left_femur
  {
    OFFSET 10.78128 -3.44521 -0.5502486
    CHANNELS 3 Zrotation Xrotation Yrotation
    JOINT left_femur_tibia
    {
      OFFSET 0.8047443 -44.0398 -0.1307829
      CHANNELS 3 Zrotation Xrotation Yrotation
      JOINT left_tibia_foot
      {
        OFFSET -4.370144 -48.10324 -4.275266
        CHANNELS 3 Zrotation Xrotation Yrotation
        End Site
        {
          OFFSET 0 -5 15
        }
      }
    }
  }
  JOINT pelvis_spine1
  {
    OFFSET 0 6.468898 -3.129235
    CHANNELS 3 Zrotation Xrotation Yrotation
    JOINT spine1
    {
      OFFSET 0 23.15396 4.99043
      CHANNELS 3 Zrotation Xrotation Yrotation
      JOINT spine2
      {
        OFFSET 0 20.79997 -5.064912
        CHANNELS 3 Zrotation Xrotation Yrotation
        JOINT neck
        {
          OFFSET 0 14.38658 9.616178
          CHANNELS 3 Zrotation Xrotation Yrotation
          End Site
          {
            OFFSET 0 20 0
          }
        }
      }
      JOINT right_manubrium
      {
        OFFSET -5.722621 16.35077 3.967754
        CHANNELS 3 Zrotation Xrotation Yrotation
        JOINT right_clavicle
        {
          OFFSET -13.16364 1.694482 -4.693211
          CHANNELS 3 Zrotation Xrotation Yrotation
          JOINT right_humerus
          {
            OFFSET -28.5034 -0.3100689 -2.792744
            CHANNELS 3 Zrotation Xrotation Yrotation
            JOINT right_radius
            {
              OFFSET -25.15693 0.02248979 -1.271978
              CHANNELS 3 Zrotation Xrotation Yrotation
              End Site
              {
                OFFSET -15 0 0
              }
            }
          }
        }
      }
      JOINT left_manubrium
      {
        OFFSET 5.722621 16.35077 3.967754
        CHANNELS 3 Zrotation Xrotation Yrotation
        JOINT left_clavicle
        {
          OFFSET 13.16364 1.694482 -4.693211
          CHANNELS 3 Zrotation Xrotation Yrotation
          JOINT left_humerus
          {
            OFFSET 29.39168 -1.063119 -2.237045
            CHANNELS 3 Zrotation Xrotation Yrotation
            JOINT left_radius
            {
              OFFSET 24.59957 -0.9528479 0.9047498
              CHANNELS 3 Zrotation Xrotation Yrotation
              End Site
              {
                OFFSET 15 -0 -0
              }
            }
          }
        }
      }
    }
  }
}
MOTION
Frames: 11
Frame Time: 0.0416666666667
0 103.5113 0 0.5922128 0.6307495 0.4370171 3.447738 -19.96348 10.26563 -0 42.0924 -0 -4.465056 -14.61249 -4.882802 -6.804158 9.29756 -23.26424 -0 1.771238 -0 2.82934 -20.43266 23.09083 -4.340606 -1.596173 3.834308 3.122445 8.321745 -8.432564 0.3051988 21.69747 8.457221 3.873725 -25.10165 9.047154 9.481038 -19.20461 12.24381 83.92465 41.39438 -19.43864 -0 0 16.36413 -7.927912 10.87105 7.383927 3.761887 -18.3272 -1.89517 -97.64523 37.59619 27.44022 0 0 -19.45608 -6.897863 13.44125 24.48747
0.3696019 103.7298 0.9245089 0.7479349 0.03631949 0.9372895 3.022315 -19.29624 10.06164 -0 43.99533 -0 -4.583599 -13.62232 -5.081343 -6.914816 9.194221 -22.98045 -0 2.498058 -0 2.615637 -20.25082 22.92619 -4.449229 -1.494061 3.770114 3.003785 8.594029 -8.403656 0.2636535 21.84928 8.445733 3.879684 -24.77502 8.895676 9.533239 -19.17741 12.31725 84.20519 41.22582 -19.53478 -0 0 16.07536 -8.577534 11.06446 7.718187 3.539296 -18.39609 -2.234757 -97.52159 37.80082 27.41185 0 0 -19.34068 -7.419347 13.19435 25.18849
0.6773326 103.6459 2.431869 0.5640838 0.3224061 1.42339 3.271774 -22.20692 8.56475 -0 38.31334 -0 -4.684887 -12.08682 -4.866594 -6.491817 11.13102 -21.59544 -0 2.134097 -0 2.280227 -20.96747 21.73398 -4.110075 -1.470665 3.42502 3.016695 8.541251 -8.62611 0.3238611 21.68583 8.418183 3.837375 -24.63337 8.899788 8.440846 -18.72999 12.01941 85.49182 39.74411 -20.71226 -0 0 14.85007 -9.558399 11.01601 7.713521 4.300421 -19.36224 -2.445079 -94.7122 36.05003 23.85843 0 0 -21.42092 -5.318627 13.42862 22.18776
0.9405607 103.3032 4.45601 0.2517689 1.130104 1.906167 3.72891 -25.13637 7.702383 -0 32.75524 -0 -4.441037 -11.49839 -4.788703 -6.062571 12.74219 -20.56766 -0 1.583381 -0 1.503614 -21.64724 20.37416 -3.755692 -1.446539 3.179453 3.15024 8.228698 -8.927815 0.3336736 21.33768 8.489946 3.795071 -24.80552 8.994322 7.760465 -18.29211 11.74847 86.29641 39.09449 -21.76556 -0 0 14.07557 -10.00377 11.20049 7.696713 4.879736 -19.99155 -2.361292 -92.8736 35.09479 21.49767 0 0 -23.4433 -4.226515 13.18035 20.68493
1.171882 102.7518 6.967508 -0.1211623 2.033795 2.384497 4.270656 -27.69277 7.116517 -0 27.72812 -0 -4.204552 -11.14386 -4.699094 -5.665484 14.08068 -19.74008 -0 1.553238 -0 0.6187602 -22.08213 19.04143 -3.377005 -1.440368 2.98972 3.300906 7.863911 -9.195532 0.3454968 20.96675 8.571398 3.767251 -25.09137 9.114866 7.235123 -17.86928 11.50516 86.89435 38.7 -22.65128 -0 0 13.45848 -10.19689 11.38616 7.628534 5.358013 -20.44032 -2.167044 -91.51979 34.30734 19.72943 0 0 -25.11055 -3.352768 12.8904 19.53179
1.384458 102.0626 9.963588 -0.5582773 3.006178 2.854113 4.909757 -29.84413 6.771183 -0 23.29173 -0 -4.001104 -10.88448 -4.592191 -5.288559 15.15517 -19.05953 -0 2.225487 -0 -0.4081885 -22.22347 17.68661 -2.961751 -1.447571 2.846963 3.459148 7.463952 -9.425309 0.3596774 20.57636 8.661619 3.757783 -25.47925 9.253387 6.845244 -17.44621 11.28633 87.33863 38.5226 -23.39898 -0 0 12.94814 -10.19531 11.58066 7.527717 5.727419 -20.72125 -1.886057 -90.56728 33.67405 18.48372 0 0 -26.41256 -2.668037 12.56335 18.69367
1.591581 101.3154 13.47075 -1.053107 3.9852 3.311954 5.631434 -31.5406 6.601516 -0 19.51777 -0 -3.866707 -10.53834 -4.473685 -4.925851 15.98047 -18.44398 -0 3.850525 -0 -1.618926 -22.00884 16.25419 -2.498913 -1.456734 2.737584 3.610151 7.059803 -9.611786 0.3770494 20.18013 8.754708 3.768578 -25.9335 9.392755 6.562172 -17.00007 11.09123 87.69865 38.49435 -24.04208 -0 0 12.46559 -10.09327 11.79753 7.424357 5.976182 -20.8611 -1.560114 -89.91908 33.154 17.66243 0 0 -27.35122 -2.142887 12.19513 18.13145
1.807662 100.6049 17.53403 -1.591439 4.895604 3.752106 6.411426 -32.67538 6.562368 -0 16.54739 -0 -3.841025 -9.970263 -4.355999 -4.57836 16.53577 -17.83487 -0 6.714366 -0 -3.036502 -21.35626 14.72857 -1.983385 -1.455138 2.654395 3.739774 6.684674 -9.74447 0.3990457 19.79969 8.84121 3.80038 -26.41419 9.513665 6.37471 -16.51377 10.92504 88.0191 38.56753 -24.59067 -0 0 11.94806 -9.962046 12.04764 7.342347 6.080402 -20.87272 -1.227975 -89.52823 32.73007 17.22007 0 0 -27.89345 -1.777428 11.78465 17.84599
2.047346 100.0417 22.20578 -2.140439 5.618826 4.15977 7.198301 -33.09016 6.594285 -0 14.56326 -0 -3.976055 -9.05927 -4.257449 -4.253792 16.77882 -17.173 -0 11.13807 -0 -4.646295 -20.17577 13.14348 -1.419054 -1.425825 2.592229 3.829139 6.387543 -9.806038 0.4292423 19.47457 8.902509 3.850257 -26.85512 9.58785 6.269719 -15.97506 10.79857 88.3419 38.67363 -25.03988 -0 0 11.32714 -9.882369 12.33428 7.303138 6.013009 -20.77463 -0.9421221 -89.35243 32.37509 17.10249 0 0 -27.99102 -1.566349 11.34464 17.82251
2.32258 99.7502 27.52447 -2.640705 5.988483 4.504238 7.910293 -32.58394 6.626009 -0 13.75269 -0 -4.323024 -7.739595 -4.202556 -3.965181 16.64052 -16.40338 -0 17.39642 -0 -6.37685 -18.39968 11.60312 -0.8256753 -1.34707 2.550545 3.854553 6.232575 -9.772008 0.4742542 19.26524 8.908211 3.908112 -27.15539 9.577955 6.228799 -15.38335 10.72806 88.69665 38.71807 -25.36231 -0 0 10.5426 -9.942351 12.64959 7.322544 5.751342 -20.59313 -0.7686957 -89.34609 32.05396 17.23183 0 0 -27.59413 -1.496305 10.90576 18.02017
2.636118 99.85723 33.48163 -3.001057 5.796801 4.734615 8.440358 -30.95226 6.579075 -0 14.20675 -0 -4.907251 -6.056683 -4.219227 -3.727249 16.02611 -15.47727 -0 25.56043 -0 -8.081948 -16.03887 10.29321 -0.2460287 -1.193886 2.537163 3.78776 6.294021 -9.611908 0.5455621 19.25167 8.814037 3.952591 -27.173 9.441054 6.215951 -14.76057 10.73232 89.08852 38.56601 -25.49882 -0 0 9.565711 -10.23719 12.9684 7.405646 5.295657 -20.36882 -0.7839025 -89.44004 31.70858 17.47445 0 0 -26.68469 -1.525116 10.52173 18.33331
